HIERARCHY
ROOT hips
{
  OFFSET 0 10.6860622 2.3727825e-15
  CHANNELS 6 Xposition Yposition Zposition Yrotation Xrotation Zrotation
  JOINT leftUpperLeg
  {
    OFFSET 0.6642549969 -0.9402397400000004 0
    CHANNELS 3 Yrotation Xrotation Zrotation
    JOINT leftLowerLeg
    {
      OFFSET 0 -3.997221335632195 0
      CHANNELS 3 Yrotation Xrotation Zrotation
      JOINT leftFoot
      {
        OFFSET -0.13777839790000004 -4.6145792000000005 -0.22186036399999998
        CHANNELS 3 Yrotation Xrotation Zrotation
        JOINT leftToes
        {
          OFFSET -0.03777410834999995 -0.9130806927000008 0.85230013
          CHANNELS 3 Yrotation Xrotation Zrotation
          End Site
          {
            OFFSET -0.03777410834999995 -0.9130806927000008 0.85230013
          }
        }
      }
    }
  }
  JOINT rightUpperLeg
  {
    OFFSET -0.6642778626 -0.9402397400000004 0
    CHANNELS 3 Yrotation Xrotation Zrotation
    JOINT rightLowerLeg
    {
      OFFSET 0 -3.997221452859387 0
      CHANNELS 3 Yrotation Xrotation Zrotation
      JOINT rightFoot
      {
        OFFSET 0.1377926176 -4.6145792000000005 -0.22185782299999995
        CHANNELS 3 Yrotation Xrotation Zrotation
        JOINT rightToes
        {
          OFFSET 0.037780746850000047 -0.9130806927000008 0.85230167
          CHANNELS 3 Yrotation Xrotation Zrotation
          End Site
          {
            OFFSET 0.037780746850000047 -0.9130806927000008 0.85230167
          }
        }
      }
    }
  }
  JOINT spine
  {
    OFFSET 0 0.13988381660000015 0
    CHANNELS 3 Yrotation Xrotation Zrotation
    JOINT chest
    {
      OFFSET 0 0.6191039003973773 0
      CHANNELS 3 Yrotation Xrotation Zrotation
      JOINT upperChest
      {
        OFFSET 0 0.9855186130586943 0
        CHANNELS 3 Yrotation Xrotation Zrotation
        JOINT leftShoulder
        {
          OFFSET 0.1807663869 1.5087829790000005 0
          CHANNELS 3 Yrotation Xrotation Zrotation
          JOINT leftUpperArm
          {
            OFFSET 0.5985063006419806 0 0
            CHANNELS 3 Yrotation Xrotation Zrotation
            JOINT leftLowerArm
            {
              OFFSET 2.2993332369501065 0 0
              CHANNELS 3 Yrotation Xrotation Zrotation
              JOINT leftHand
              {
                OFFSET 2.395047042602395 0 0
                CHANNELS 3 Yrotation Xrotation Zrotation
                JOINT leftIndexProximal
                {
                  OFFSET 0.5766295810000004 0.04556643899499946 0.17265095988184
                  CHANNELS 3 Yrotation Xrotation Zrotation
                  JOINT leftIndexIntermediate
                  {
                    OFFSET 0.2957229000000008 -0.019352197700001517 -0.007932640616999987
                    CHANNELS 3 Yrotation Xrotation Zrotation
                    JOINT leftIndexDistal
                    {
                      OFFSET 0.19008243099999922 -0.012484908149998475 -0.002786250786000012
                      CHANNELS 3 Yrotation Xrotation Zrotation
                      End Site
                      {
                        OFFSET 0.19008243099999922 -0.012484908149998475 -0.002786250786000012
                      }
                    }
                  }
                }
                JOINT leftMiddleProximal
                {
                  OFFSET 0.5834975091000001 0.0524350405149987 0.02204081888183999
                  CHANNELS 3 Yrotation Xrotation Zrotation
                  JOINT leftMiddleIntermediate
                  {
                    OFFSET 0.33880573540000003 -0.019871473270000717 -0.00000971183179999946
                    CHANNELS 3 Yrotation Xrotation Zrotation
                    JOINT leftMiddleDistal
                    {
                      OFFSET 0.20676022730000088 -0.012221336379999448 0.0001471936708000235
                      CHANNELS 3 Yrotation Xrotation Zrotation
                      End Site
                      {
                        OFFSET 0.20676022730000088 -0.012221336379999448 0.0001471936708000235
                      }
                    }
                  }
                }
                JOINT leftLittleProximal
                {
                  OFFSET 0.5344154683999995 -0.012880921405001189 -0.24414037221816004
                  CHANNELS 3 Yrotation Xrotation Zrotation
                  JOINT leftLittleIntermediate
                  {
                    OFFSET 0.21758961730000093 -0.011650919939999227 0.011893592810000034
                    CHANNELS 3 Yrotation Xrotation Zrotation
                    JOINT leftLittleDistal
                    {
                      OFFSET 0.1475273964999999 -0.008152365682999818 0.006001092492999946
                      CHANNELS 3 Yrotation Xrotation Zrotation
                      End Site
                      {
                        OFFSET 0.1475273964999999 -0.008152365682999818 0.006001092492999946
                      }
                    }
                  }
                }
                JOINT leftRingProximal
                {
                  OFFSET 0.5799399463000003 0.026911854694997794 -0.12150566991816003
                  CHANNELS 3 Yrotation Xrotation Zrotation
                  JOINT leftRingIntermediate
                  {
                    OFFSET 0.26167887460000006 -0.013480186499999602 0.010996293000000053
                    CHANNELS 3 Yrotation Xrotation Zrotation
                    JOINT leftRingDistal
                    {
                      OFFSET 0.17667108799999987 -0.008990287899999228 0.0055541023999999065
                      CHANNELS 3 Yrotation Xrotation Zrotation
                      End Site
                      {
                        OFFSET 0.17667108799999987 -0.008990287899999228 0.0055541023999999065
                      }
                    }
                  }
                }
                JOINT leftThumbProximal
                {
                  OFFSET 0.11018806699999972 -0.09448718900500053 0.17047963138184
                  CHANNELS 3 Yrotation Xrotation Zrotation
                  JOINT leftThumbIntermediate
                  {
                    OFFSET 0.31062601459999983 -0.08126270900000132 0.15443142000000007
                    CHANNELS 3 Yrotation Xrotation Zrotation
                    JOINT leftThumbDistal
                    {
                      OFFSET 0.21627175790000086 -0.08833193599999878 0.018771167799999988
                      CHANNELS 3 Yrotation Xrotation Zrotation
                      End Site
                      {
                        OFFSET 0.21627175790000086 -0.08833193599999878 0.018771167799999988
                      }
                    }
                  }
                }
              }
            }
          }
        }
        JOINT neck
        {
          OFFSET 0 1.5463305265074576 0
          CHANNELS 3 Yrotation Xrotation Zrotation
          JOINT head
          {
            OFFSET 0 0.8456443600000344 0
            CHANNELS 3 Yrotation Xrotation Zrotation
            JOINT leftEye
            {
              OFFSET 0.30408573140000006 0.5104519199999995 0.1276382305
              CHANNELS 3 Yrotation Xrotation Zrotation
              End Site
              {
                OFFSET 0.30408573140000006 0.5104519199999995 0.1276382305
              }
            }
            JOINT rightEye
            {
              OFFSET -0.30409491089999996 0.5104519199999995 0.1276379445
              CHANNELS 3 Yrotation Xrotation Zrotation
              End Site
              {
                OFFSET -0.30409491089999996 0.5104519199999995 0.1276379445
              }
            }
            JOINT jaw
            {
              OFFSET -3.155239131000001e-7 -0.11984121820000082 0.60178107
              CHANNELS 3 Yrotation Xrotation Zrotation
              End Site
              {
                OFFSET -3.155239131000001e-7 -0.11984121820000082 0.60178107
              }
            }
          }
        }
        JOINT rightShoulder
        {
          OFFSET -0.1807303465 1.5087829790000005 0
          CHANNELS 3 Yrotation Xrotation Zrotation
          JOINT rightUpperArm
          {
            OFFSET -0.5985063796536958 0 0
            CHANNELS 3 Yrotation Xrotation Zrotation
            JOINT rightLowerArm
            {
              OFFSET -2.2993322059002854 0 0
              CHANNELS 3 Yrotation Xrotation Zrotation
              JOINT rightHand
              {
                OFFSET -2.395045314457259 0 0
                CHANNELS 3 Yrotation Xrotation Zrotation
                JOINT rightIndexProximal
                {
                  OFFSET -0.5764487688300002 0.0441371204405987 0.17361932004999997
                  CHANNELS 3 Yrotation Xrotation Zrotation
                  JOINT rightIndexIntermediate
                  {
                    OFFSET -0.29573011380000047 -0.01934826376999843 -0.007698921482999974
                    CHANNELS 3 Yrotation Xrotation Zrotation
                    JOINT rightIndexDistal
                    {
                      OFFSET -0.19008373999999884 -0.012503266380000655 -0.0026365778999999897
                      CHANNELS 3 Yrotation Xrotation Zrotation
                      End Site
                      {
                        OFFSET -0.19008373999999884 -0.012503266380000655 -0.0026365778999999897
                      }
                    }
                  }
                }
                JOINT rightMiddleProximal
                {
                  OFFSET -0.5834852037300005 0.05211639405060153 0.02307162440000001
                  CHANNELS 3 Yrotation Xrotation Zrotation
                  JOINT rightMiddleIntermediate
                  {
                    OFFSET -0.33880114510000003 -0.019952774050000954 0.0002455003561999819
                    CHANNELS 3 Yrotation Xrotation Zrotation
                    JOINT rightMiddleDistal
                    {
                      OFFSET -0.20675694929999955 -0.012273788999999091 0.00030209124000002766
                      CHANNELS 3 Yrotation Xrotation Zrotation
                      End Site
                      {
                        OFFSET -0.20675694929999955 -0.012273788999999091 0.00030209124000002766
                      }
                    }
                  }
                }
                JOINT rightLittleProximal
                {
                  OFFSET -0.5346811737299992 -0.011214256288399227 -0.24363941305000003
                  CHANNELS 3 Yrotation Xrotation Zrotation
                  JOINT rightLittleIntermediate
                  {
                    OFFSET -0.21757715980000092 -0.011771559690000988 0.01201554387
                    CHANNELS 3 Yrotation Xrotation Zrotation
                    JOINT rightLittleDistal
                    {
                      OFFSET -0.1475201849000004 -0.00822055339600003 0.006082065407000015
                      CHANNELS 3 Yrotation Xrotation Zrotation
                      End Site
                      {
                        OFFSET -0.1475201849000004 -0.00822055339600003 0.006082065407000015
                      }
                    }
                  }
                }
                JOINT rightRingProximal
                {
                  OFFSET -0.5800810755299999 0.027657985680600072 -0.12066365025000003
                  CHANNELS 3 Yrotation Xrotation Zrotation
                  JOINT rightRingIntermediate
                  {
                    OFFSET -0.26166445029999974 -0.013623118409999302 0.011164098990000045
                    CHANNELS 3 Yrotation Xrotation Zrotation
                    JOINT rightRingDistal
                    {
                      OFFSET -0.17666387530000027 -0.009072900100000503 0.005668185599999959
                      CHANNELS 3 Yrotation Xrotation Zrotation
                      End Site
                      {
                        OFFSET -0.17666387530000027 -0.009072900100000503 0.005668185599999959
                      }
                    }
                  }
                }
                JOINT rightThumbProximal
                {
                  OFFSET -0.10997596379000074 -0.09577489355940072 0.16989765924999997
                  CHANNELS 3 Yrotation Xrotation Zrotation
                  JOINT rightThumbIntermediate
                  {
                    OFFSET -0.31036620999999986 -0.08229339117999834 0.15440884469999996
                    CHANNELS 3 Yrotation Xrotation Zrotation
                    JOINT rightThumbDistal
                    {
                      OFFSET -0.21631306399999906 -0.08825326400000111 0.018656797720000014
                      CHANNELS 3 Yrotation Xrotation Zrotation
                      End Site
                      {
                        OFFSET -0.21631306399999906 -0.08825326400000111 0.018656797720000014
                      }
                    }
                  }
                }
              }
            }
          }
        }
      }
    }
  }
}
MOTION
Frames: 9
Frame Time: 0.03333333333333333
0 -10.32152400269981 -0.0515433937429755 0 -89.00220408007306 0 3.5300276146510563 -55.16964535557776 6.87276521302636 172.70043169401472 54.409791984452255 175.59616894923462 -1.132009425149098 8.564030736227638 8.466937032491876 0 0 0 -5.735518072333252 -45.15809935894202 -5.951316663955301 -167.68286370956878 69.5406576548898 -169.95072776528903 1.8232086337768203 8.596902678846329 -8.298895925400357 0 0 0 -0.9398300521062983 -8.713260095768627 -0.8118490846388121 -1.3662305234476202 18.041772335587886 -0.1692338865261729 0 0 0 -2.8449008074385334 -7.97983645716459 3.5954581440795885 -34.76921170892303 -20.504142334018226 5.142420155144541 -30.141404355057304 -36.08566637930417 7.557224127658798 0.24543004992451084 -38.070668551686396 -42.28616894405378 0 0 0 0 0 0 0 0 0 0 0 0 0 0 0 0 0 0 0 0 0 0 0 0 0 0 0 0 0 0 0 0 0 0 0 0 0 0 0 0 0 0 0 0 0 0.6496592483216589 -5.067564946451621 5.069581633070971 5.4850230895729215 -3.3132297273385256 5.3898398669393535 0 0 0 0 0 0 0 0 0 5.005607441960017 -7.800516278625613 -3.734464598822105 37.75103067918707 -20.059503053240082 -5.927835023314129 33.075981169773996 -32.99256994119426 -5.576007996863021 9.208112357541978 -24.909351745053677 20.866866529107146 0 0 0 0 0 0 0 0 0 0 0 0 0 0 0 0 0 0 0 0 0 0 0 0 0 0 0 0 0 0 0 0 0 0 0 0 0 0 0 0 0 0 0 0 0
0 -10.32152400269981 -0.047861722761334394 0 -89.00220408007306 0 3.242252898671842 -55.16859898377535 6.716245779564801 172.70043169401472 54.409791984452255 175.59616894923462 -0.9846508946665509 8.565675517751915 8.059918903505993 0 0 0 -5.385813217669413 -45.1485593387687 -5.817215442870255 -167.68286370956878 69.5406576548898 -169.95072776528903 1.6268218487610477 8.592734706709464 -7.90487308720049 0 0 0 -0.9222169120026572 -8.437017126084438 -0.8075584504765931 -1.3510744586538626 17.58137049472976 -0.1865786990116073 0 0 0 -3.19243896688205 -7.801290990550222 3.2138932466112022 -35.939853633888035 -20.51599621670567 5.005664061168952 -31.273932832479044 -36.47997410221306 5.764159189276936 -0.6963388837044109 -37.247606127541985 -42.13404851476491 0 0 0 0 0 0 0 0 0 0 0 0 0 0 0 0 0 0 0 0 0 0 0 0 0 0 0 0 0 0 0 0 0 0 0 0 0 0 0 0 0 0 0 0 0 0.6400782145442061 -4.161646136618025 4.70871936850258 5.036675203241061 -1.5465899134153607 5.20694890174294 0 0 0 0 0 0 0 0 0 5.181820853554765 -7.632865597166792 -3.3363658015558246 38.706537268528585 -20.09854200391978 -5.73117002133252 34.18500553256467 -33.79672997184113 -4.058189429696642 9.445863508716334 -25.00527979463144 22.33321076454885 0 0 0 0 0 0 0 0 0 0 0 0 0 0 0 0 0 0 0 0 0 0 0 0 0 0 0 0 0 0 0 0 0 0 0 0 0 0 0 0 0 0 0 0 0
0 -10.32152400269981 -0.04418005177969329 0 -89.00220408007306 0 2.9544801082394305 -55.1680010693612 6.55972147180592 172.70043169401472 54.409791984452255 175.59616894923462 -0.837306963273826 8.568354670548992 7.6529042693644715 0 0 0 -5.036134211013288 -45.13960189013876 -5.68305667611332 -167.68286370956878 69.5406576548898 -169.95072776528903 1.4304125760161435 8.589901686131808 -7.510842787221007 0 0 0 -0.904595133589555 -8.160775779756264 -0.8031850821844451 -1.335810572695041 17.120974799401488 -0.20400743705242508 0 0 0 -3.541023599473525 -7.625045823862676 2.83140288897836 -37.11056167496794 -20.530463864307823 4.869182830313136 -32.39650418247223 -36.90264859482036 3.9716397108056314 -1.625297980442656 -36.422690853526724 -42.00039074718391 0 0 0 0 0 0 0 0 0 0 0 0 0 0 0 0 0 0 0 0 0 0 0 0 0 0 0 0 0 0 0 0 0 0 0 0 0 0 0 0 0 0 0 0 0 0.6247925621852305 -3.2558057769344564 4.3480754842605185 4.582851355791974 0.21855692515168185 5.010306492153289 0 0 0 0 0 0 0 0 0 5.359137066278738 -7.466433607973091 -2.93790277544547 39.662144176775925 -20.140655278318643 -5.5351754728985965 35.27854857656865 -34.62509968814917 -2.5447955003716562 9.681017603222928 -25.106694683810257 23.80028179029559 0 0 0 0 0 0 0 0 0 0 0 0 0 0 0 0 0 0 0 0 0 0 0 0 0 0 0 0 0 0 0 0 0 0 0 0 0 0 0 0 0 0 0 0 0
0 -10.32152400269981 -0.04049838079805218 0 -89.00220408007306 0 2.6667549778270314 -55.16783963400676 6.403219380582994 172.70043169401472 54.409791984452255 175.59616894923462 -0.6900125200698127 8.572066489647952 7.245970880635842 0 0 0 -4.686544589865089 -45.1312218975112 -5.548869998199683 -167.68286370956878 69.5406576548898 -169.95072776528903 1.2340276572815037 8.588400996819315 -7.11688371553693 0 0 0 -0.8869652298073639 -7.884554634445268 -0.7987287844469546 -1.3204400303308306 16.660673222813845 -0.22151785811647298 0 0 0 -3.890538406021455 -7.451164439260877 2.4481093237096125 -38.27974181373372 -20.5475077243606 4.733218174878901 -33.51318543821304 -37.3552849480834 2.1717388469571137 -2.5410318078364593 -35.5972245927666 -41.88472899214889 0 0 0 0 0 0 0 0 0 0 0 0 0 0 0 0 0 0 0 0 0 0 0 0 0 0 0 0 0 0 0 0 0 0 0 0 0 0 0 0 0 0 0 0 0 0.6038332858930097 -2.3508674578816104 3.987781938991885 4.126515452209598 1.9675757346842841 4.801359001158999 0 0 0 0 0 0 0 0 0 5.537510875173357 -7.301264842089532 -2.5391582784669318 40.61691763776461 -20.18578534723394 -5.340094051625539 36.350268726064535 -35.472293917394936 -1.0437158861312525 9.914318529959466 -25.213957646008858 25.27381096971434 0 0 0 0 0 0 0 0 0 0 0 0 0 0 0 0 0 0 0 0 0 0 0 0 0 0 0 0 0 0 0 0 0 0 0 0 0 0 0 0 0 0 0 0 0
0 -10.32152400269981 -0.036816709816411074 0 -89.00220408007306 0 2.3790296982383388 -55.16813260976296 6.246716277713824 172.70043169401472 54.409791984452255 175.59616894923462 -0.542746810985104 8.576811868742402 6.839042996614377 0 0 0 -4.336978153524327 -45.123419106185075 -5.414633013224321 -167.68286370956878 69.5406576548898 -169.95072776528903 1.0376372034654184 8.588235213323848 -6.722922535874646 0 0 0 -0.8693252861208308 -7.608334315189983 -0.794189642219748 -1.3049593010862461 16.20037679734258 -0.23911543156427628 0 0 0 -4.241081872017065 -7.2796071004703 2.0639027293476384 -39.449018457075695 -20.567148721676897 4.597636700997554 -34.618331880563495 -37.83565681339384 0.37202918958018344 -3.4454734366687183 -34.77037384615264 -41.786311640130016 0 0 0 0 0 0 0 0 0 0 0 0 0 0 0 0 0 0 0 0 0 0 0 0 0 0 0 0 0 0 0 0 0 0 0 0 0 0 0 0 0 0 0 0 0 0.5771932826468926 -1.4460785273096333 3.627346274653272 3.663100567815824 3.714861664005534 4.578144249013664 0 0 0 0 0 0 0 0 0 5.716973836286151 -7.137332420266881 -2.140042468106779 41.571811227703584 -20.233962155514888 -5.145783468070367 37.40576018341739 -36.34215310818789 0.4538047596235694 10.144701465374798 -25.32661600490181 26.74817926703127 0 0 0 0 0 0 0 0 0 0 0 0 0 0 0 0 0 0 0 0 0 0 0 0 0 0 0 0 0 0 0 0 0 0 0 0 0 0 0 0 0 0 0 0 0
0 -10.32152400269981 -0.029453367853128864 0 -89.00220408007306 0 1.8037325540390703 -55.17006989139781 5.933814085189716 172.70043169401472 54.409791984452255 175.59616894923462 -0.2484202882211831 8.589404333895235 6.025470801844684 0 0 0 -3.638128270035375 -45.109544197252596 -5.146101933513092 -167.68286370956878 69.5406576548898 -169.95072776528903 0.6450058826260824 8.591917005516002 -5.9352715998880665 0 0 0 -0.8340158035094182 -7.055963416577107 -0.7848633329829913 -1.2736736228630097 15.28009524195043 -0.27456757761781203 0 0 0 -4.944860118072316 -6.943690759712158 1.2931722716461955 -41.78258079218089 -20.614071210082002 4.328454769103415 -36.79098813184511 -38.87771639818484 -3.227859950531501 -5.219451742410045 -33.116974578024916 -41.63936619985587 0 0 0 0 0 0 0 0 0 0 0 0 0 0 0 0 0 0 0 0 0 0 0 0 0 0 0 0 0 0 0 0 0 0 0 0 0 0 0 0 0 0 0 0 0 0.5069685263272169 0.36029218514807565 2.9063747295239484 3.0572504829653226 7.185531708914657 3.7708117823612133 0 0 0 0 0 0 0 0 0 6.079007343654559 -6.813322434455045 -1.340971856383344 43.4788407003484 -20.33921451501322 -4.760306089197454 38.90245630977001 -37.36365894216457 3.958710635106903 10.597157898631094 -25.568410806961705 29.706512507078877 0 0 0 0 0 0 0 0 0 0 0 0 0 0 0 0 0 0 0 0 0 0 0 0 0 0 0 0 0 0 0 0 0 0 0 0 0 0 0 0 0 0 0 0 0
0 -10.32152400269981 -0.025771696871487754 0 -89.00220408007306 0 1.5161903713946017 -55.171708283291096 5.777431503022298 172.70043169401472 54.409791984452255 175.59616894923462 -0.10139319339105062 8.597244615201246 5.6188770641499035 0 0 0 -3.28888410095769 -45.103481335561554 -5.011834898275399 -167.68286370956878 69.5406576548898 -169.95072776528903 0.44880707589513874 8.59575339502551 -5.541636613387877 0 0 0 -0.8163454964620225 -6.779825725030269 -0.7800770037847484 -1.2578682967896349 14.820169723680733 -0.292422823064764 0 0 0 -5.298002880894527 -6.779384655008133 0.9067418908449492 -42.94583918834953 -20.64127659947619 4.195076835241824 -37.85238449089985 -39.435891487354894 -5.020908550386103 -6.089638377625305 -32.29154091349064 -41.589757478148286 0 0 0 0 0 0 0 0 0 0 0 0 0 0 0 0 0 0 0 0 0 0 0 0 0 0 0 0 0 0 0 0 0 0 0 0 0 0 0 0 0 0 0 0 0 0.4634170263971123 1.2612860520118396 2.5456918522565486 2.732916109589899 8.922698115788203 3.3494542530978224 0 0 0 0 0 0 0 0 0 6.261540166165022 -6.653289040968738 -0.9410695523491879 44.43037513611736 -20.396206936205765 -4.569358967047174 39.63071449037977 -37.90326554319295 5.722609940643477 10.818562770932202 -25.69724797946588 31.18833144497891 0 0 0 0 0 0 0 0 0 0 0 0 0 0 0 0 0 0 0 0 0 0 0 0 0 0 0 0 0 0 0 0 0 0 0 0 0 0 0 0 0 0 0 0 0
0 -10.32152400269981 -0.022090025889846644 0 -89.00220408007306 0 1.2286434198718137 -55.17379523763228 5.6210589918177165 172.70043169401472 54.409791984452255 175.59616894923462 0.04557717958025273 8.606116071839153 5.212295933535275 0 0 0 -2.939656516989377 -45.0979948313794 -4.877531281098729 -167.68286370956878 69.5406576548898 -169.95072776528903 0.2526371686888011 8.600923040957426 -5.148012329037665 0 0 0 -0.7986618550521254 -6.50368977002587 -0.7752076758980496 -1.2419479391187063 14.360249558586737 -0.31037177443685404 0 0 0 -5.652135891966509 -6.617449601518956 0.5194285561561164 -44.10924509735144 -20.67101086272741 4.062291210834269 -38.89927782519938 -40.0195578989995 -6.8150589250253075 -6.951222921559785 -31.465575504620855 -41.55529214902962 0 0 0 0 0 0 0 0 0 0 0 0 0 0 0 0 0 0 0 0 0 0 0 0 0 0 0 0 0 0 0 0 0 0 0 0 0 0 0 0 0 0 0 0 0 0.4141702253884843 2.1619874250212705 2.184154439407314 2.3938933756270573 10.657420305556382 2.9158904818217204 0 0 0 0 0 0 0 0 0 6.445134541563655 -6.494525380216338 -0.5407843648005916 45.382063781623756 -20.456163709195682 -4.379375171089827 40.34291714647226 -38.46039462106809 7.490935940888886 11.036437891909118 -25.831208297227032 32.67122388300782 0 0 0 0 0 0 0 0 0 0 0 0 0 0 0 0 0 0 0 0 0 0 0 0 0 0 0 0 0 0 0 0 0 0 0 0 0 0 0 0 0 0 0 0 0
0 -10.32152400269981 -0.018408354908205537 0 -89.00220408007306 0 0.941233974532594 -55.17633082488335 5.464773935457714 172.70043169401472 54.409791984452255 175.59616894923462 0.19240154913062912 8.616014458889175 4.805958698131256 0 0 0 -2.5906410718285136 -45.093089356061164 -4.743271678821014 -167.68286370956878 69.5406576548898 -169.95072776528903 0.05662191459860736 8.607420816932462 -4.754636959339355 0 0 0 -0.780968211971811 -6.227612694260103 -0.7702560330723481 -1.2259202120306 13.900602450608876 -0.3284053969761466 0 0 0 -6.006921707785328 -6.458043050796589 0.1315956600392902 -45.2680784385373 -20.70312763321719 3.9306889311183686 -39.76805698277254 -40.23319773717469 -8.750830990997004 -7.801522284611438 -30.642431908577983 -41.53561498567089 0 0 0 0 0 0 0 0 0 0 0 0 0 0 0 0 0 0 0 0 0 0 0 0 0 0 0 0 0 0 0 0 0 0 0 0 0 0 0 0 0 0 0 0 0 0.359347861817092 3.0600273100827473 1.8225228165525025 2.0389835290245886 12.391248988007218 2.4686919673648933 0 0 0 0 0 0 0 0 0 6.629662131738796 -6.3371394022102825 -0.14037205546443648 46.33111299162389 -20.518876874303846 -4.190959600908713 41.03831119151425 -39.0345566697366 9.264277273732704 11.25047141060263 -25.970085747416128 34.15409844228429 0 0 0 0 0 0 0 0 0 0 0 0 0 0 0 0 0 0 0 0 0 0 0 0 0 0 0 0 0 0 0 0 0 0 0 0 0 0 0 0 0 0 0 0 0
